<svg width="220" height="220" viewBox="0 0 220 220" fill="none" xmlns="http://www.w3.org/2000/svg">
<circle cx="110" cy="110" r="110" fill="#003469"/>
<path d="M128.5 112L133 120.5L141 69V142.5L153.5 112" stroke="white" stroke-width="3"/>
<path d="M23.2614 99.0341L21.7557 99.4602C21.661 99.2093 21.5213 98.9654 21.3366 98.7287C21.1567 98.4872 20.9105 98.2884 20.598 98.1321C20.2855 97.9759 19.8854 97.8977 19.3977 97.8977C18.7301 97.8977 18.1738 98.0516 17.7287 98.3594C17.2884 98.6624 17.0682 99.0483 17.0682 99.517C17.0682 99.9337 17.2197 100.263 17.5227 100.504C17.8258 100.746 18.2992 100.947 18.9432 101.108L20.5625 101.506C21.5379 101.742 22.2647 102.105 22.7429 102.592C23.2211 103.075 23.4602 103.698 23.4602 104.46C23.4602 105.085 23.2803 105.644 22.9205 106.136C22.5653 106.629 22.0682 107.017 21.429 107.301C20.7898 107.585 20.0464 107.727 19.1989 107.727C18.0862 107.727 17.1652 107.486 16.4361 107.003C15.7069 106.52 15.2453 105.814 15.0511 104.886L16.642 104.489C16.7936 105.076 17.08 105.516 17.5014 105.81C17.9276 106.103 18.4839 106.25 19.1705 106.25C19.9517 106.25 20.572 106.084 21.0312 105.753C21.4953 105.417 21.7273 105.014 21.7273 104.545C21.7273 104.167 21.5947 103.849 21.3295 103.594C21.0644 103.333 20.6572 103.139 20.108 103.011L18.2898 102.585C17.2907 102.348 16.5568 101.982 16.0881 101.484C15.6241 100.982 15.392 100.355 15.392 99.6023C15.392 98.9867 15.5649 98.4422 15.9105 97.9688C16.2609 97.4953 16.7367 97.1236 17.3381 96.8537C17.9441 96.5838 18.6307 96.4489 19.3977 96.4489C20.4773 96.4489 21.3248 96.6856 21.9403 97.1591C22.5606 97.6326 23.0009 98.2576 23.2614 99.0341ZM30.5572 107.727C29.506 107.727 28.5993 107.495 27.837 107.031C27.0794 106.562 26.4947 105.909 26.0827 105.071C25.6755 104.228 25.4719 103.248 25.4719 102.131C25.4719 101.013 25.6755 100.028 26.0827 99.1761C26.4947 98.3191 27.0676 97.6515 27.8015 97.1733C28.5401 96.6903 29.4019 96.4489 30.3867 96.4489C30.9549 96.4489 31.516 96.5436 32.07 96.733C32.6239 96.9223 33.1282 97.2301 33.5827 97.6562C34.0373 98.0777 34.3995 98.6364 34.6694 99.3324C34.9393 100.028 35.0742 100.885 35.0742 101.903V102.614H26.6651V101.165H33.3697C33.3697 100.549 33.2466 100 33.0004 99.517C32.7589 99.0341 32.4132 98.6529 31.9634 98.3736C31.5183 98.0942 30.9928 97.9545 30.3867 97.9545C29.7191 97.9545 29.1415 98.1203 28.6538 98.4517C28.1708 98.7784 27.7991 99.2045 27.5387 99.7301C27.2783 100.256 27.1481 100.819 27.1481 101.42V102.386C27.1481 103.21 27.2901 103.909 27.5742 104.482C27.863 105.05 28.2631 105.483 28.7745 105.781C29.2859 106.075 29.8801 106.222 30.5572 106.222C30.9975 106.222 31.3952 106.16 31.7504 106.037C32.1102 105.909 32.4203 105.72 32.6808 105.469C32.9412 105.213 33.1424 104.896 33.2844 104.517L34.9038 104.972C34.7333 105.521 34.4469 106.004 34.0444 106.42C33.6419 106.832 33.1448 107.154 32.5529 107.386C31.9611 107.614 31.2958 107.727 30.5572 107.727ZM37.6239 107.5V96.5909H39.2433V98.2386H39.3569C39.5558 97.6989 39.9156 97.2609 40.4364 96.9247C40.9573 96.5885 41.5444 96.4205 42.1978 96.4205C42.3209 96.4205 42.4748 96.4228 42.6594 96.4276C42.8441 96.4323 42.9838 96.4394 43.0785 96.4489V98.1534C43.0217 98.1392 42.8915 98.1179 42.6879 98.0895C42.489 98.0563 42.2783 98.0398 42.0558 98.0398C41.5255 98.0398 41.052 98.151 40.6353 98.3736C40.2234 98.5914 39.8967 98.8944 39.6552 99.2827C39.4184 99.6662 39.3001 100.104 39.3001 100.597V107.5H37.6239ZM54.3178 96.5909L50.2837 107.5H48.5792L44.5451 96.5909H46.3633L49.3746 105.284H49.4883L52.4996 96.5909H54.3178ZM56.5302 107.5V96.5909H58.2063V107.5H56.5302ZM57.3825 94.7727C57.0558 94.7727 56.774 94.6615 56.5373 94.4389C56.3053 94.2164 56.1893 93.9489 56.1893 93.6364C56.1893 93.3239 56.3053 93.0563 56.5373 92.8338C56.774 92.6113 57.0558 92.5 57.3825 92.5C57.7092 92.5 57.9885 92.6113 58.2205 92.8338C58.4573 93.0563 58.5756 93.3239 58.5756 93.6364C58.5756 93.9489 58.4573 94.2164 58.2205 94.4389C57.9885 94.6615 57.7092 94.7727 57.3825 94.7727ZM65.7081 107.727C64.6854 107.727 63.8047 107.486 63.0661 107.003C62.3274 106.52 61.7592 105.855 61.3615 105.007C60.9638 104.16 60.7649 103.191 60.7649 102.102C60.7649 100.994 60.9685 100.017 61.3757 99.169C61.7876 98.3168 62.3606 97.6515 63.0945 97.1733C63.8331 96.6903 64.6948 96.4489 65.6797 96.4489C66.4467 96.4489 67.138 96.5909 67.7536 96.875C68.3691 97.1591 68.8733 97.5568 69.2663 98.0682C69.6593 98.5795 69.9032 99.1761 69.9979 99.858H68.3217C68.1939 99.3608 67.9098 98.9205 67.4695 98.5369C67.0339 98.1487 66.4467 97.9545 65.7081 97.9545C65.0547 97.9545 64.4818 98.125 63.9893 98.4659C63.5017 98.8021 63.1205 99.2779 62.8459 99.8935C62.576 100.504 62.4411 101.222 62.4411 102.045C62.4411 102.888 62.5736 103.622 62.8388 104.247C63.1087 104.872 63.4875 105.357 63.9751 105.703C64.4676 106.049 65.0452 106.222 65.7081 106.222C66.1437 106.222 66.5391 106.146 66.8942 105.994C67.2493 105.843 67.55 105.625 67.7962 105.341C68.0424 105.057 68.2176 104.716 68.3217 104.318H69.9979C69.9032 104.962 69.6688 105.542 69.2947 106.058C68.9254 106.57 68.4354 106.977 67.8246 107.28C67.2185 107.578 66.513 107.727 65.7081 107.727ZM77.022 107.727C75.9709 107.727 75.0642 107.495 74.3018 107.031C73.5443 106.562 72.9595 105.909 72.5476 105.071C72.1404 104.228 71.9368 103.248 71.9368 102.131C71.9368 101.013 72.1404 100.028 72.5476 99.1761C72.9595 98.3191 73.5324 97.6515 74.2663 97.1733C75.005 96.6903 75.8667 96.4489 76.8516 96.4489C77.4197 96.4489 77.9808 96.5436 78.5348 96.733C79.0888 96.9223 79.593 97.2301 80.0476 97.6562C80.5021 98.0777 80.8643 98.6364 81.1342 99.3324C81.4041 100.028 81.5391 100.885 81.5391 101.903V102.614H73.13V101.165H79.8345C79.8345 100.549 79.7114 100 79.4652 99.517C79.2237 99.0341 78.8781 98.6529 78.4283 98.3736C77.9832 98.0942 77.4576 97.9545 76.8516 97.9545C76.1839 97.9545 75.6063 98.1203 75.1186 98.4517C74.6357 98.7784 74.264 99.2045 74.0036 99.7301C73.7431 100.256 73.6129 100.819 73.6129 101.42V102.386C73.6129 103.21 73.755 103.909 74.0391 104.482C74.3279 105.05 74.728 105.483 75.2393 105.781C75.7507 106.075 76.3449 106.222 77.022 106.222C77.4624 106.222 77.8601 106.16 78.2152 106.037C78.575 105.909 78.8852 105.72 79.1456 105.469C79.406 105.213 79.6072 104.896 79.7493 104.517L81.3686 104.972C81.1982 105.521 80.9117 106.004 80.5092 106.42C80.1068 106.832 79.6096 107.154 79.0178 107.386C78.4259 107.614 77.7607 107.727 77.022 107.727Z" fill="white"/>
<path d="M85.0682 149.682V119.682H88.3068V123.148H88.7045C88.9508 122.769 89.2917 122.286 89.7273 121.699C90.1723 121.102 90.8068 120.572 91.6307 120.108C92.464 119.634 93.5909 119.398 95.0114 119.398C96.8485 119.398 98.4678 119.857 99.8693 120.776C101.271 121.694 102.365 122.996 103.151 124.682C103.937 126.367 104.33 128.356 104.33 130.648C104.33 132.958 103.937 134.961 103.151 136.656C102.365 138.342 101.276 139.649 99.8835 140.577C98.4915 141.495 96.8864 141.955 95.0682 141.955C93.6667 141.955 92.5445 141.723 91.7017 141.259C90.8589 140.785 90.2102 140.25 89.7557 139.653C89.3011 139.047 88.9508 138.545 88.7045 138.148H88.4205V149.682H85.0682ZM88.3636 130.591C88.3636 132.239 88.6051 133.692 89.0881 134.952C89.571 136.202 90.2765 137.182 91.2045 137.892C92.1326 138.593 93.2689 138.943 94.6136 138.943C96.0152 138.943 97.1847 138.574 98.1222 137.835C99.0691 137.087 99.7794 136.083 100.253 134.824C100.736 133.555 100.977 132.144 100.977 130.591C100.977 129.057 100.741 127.674 100.267 126.443C99.803 125.203 99.0975 124.223 98.1506 123.503C97.2131 122.774 96.0341 122.409 94.6136 122.409C93.25 122.409 92.1042 122.755 91.1761 123.446C90.2481 124.128 89.5473 125.084 89.0739 126.315C88.6004 127.537 88.3636 128.962 88.3636 130.591ZM123.193 132.58V119.682H126.545V141.5H123.193V137.807H122.966C122.455 138.915 121.659 139.857 120.58 140.634C119.5 141.401 118.136 141.784 116.489 141.784C115.125 141.784 113.913 141.486 112.852 140.889C111.792 140.283 110.958 139.374 110.352 138.162C109.746 136.94 109.443 135.402 109.443 133.545V119.682H112.795V133.318C112.795 134.909 113.241 136.178 114.131 137.125C115.03 138.072 116.176 138.545 117.568 138.545C118.402 138.545 119.249 138.332 120.111 137.906C120.982 137.48 121.711 136.827 122.298 135.946C122.895 135.065 123.193 133.943 123.193 132.58ZM170.64 124.568L167.629 125.42C167.439 124.919 167.16 124.431 166.79 123.957C166.431 123.474 165.938 123.077 165.313 122.764C164.688 122.452 163.888 122.295 162.913 122.295C161.577 122.295 160.465 122.603 159.575 123.219C158.694 123.825 158.254 124.597 158.254 125.534C158.254 126.367 158.557 127.026 159.163 127.509C159.769 127.991 160.716 128.394 162.004 128.716L165.242 129.511C167.193 129.985 168.647 130.709 169.603 131.685C170.559 132.651 171.038 133.896 171.038 135.42C171.038 136.67 170.678 137.788 169.958 138.773C169.248 139.758 168.254 140.534 166.975 141.102C165.697 141.67 164.21 141.955 162.515 141.955C160.29 141.955 158.448 141.472 156.989 140.506C155.531 139.54 154.608 138.129 154.219 136.273L157.401 135.477C157.704 136.652 158.277 137.532 159.12 138.119C159.972 138.706 161.085 139 162.458 139C164.021 139 165.261 138.669 166.18 138.006C167.108 137.333 167.572 136.528 167.572 135.591C167.572 134.833 167.307 134.199 166.776 133.688C166.246 133.167 165.432 132.778 164.333 132.523L160.697 131.67C158.699 131.197 157.231 130.463 156.293 129.469C155.365 128.465 154.901 127.21 154.901 125.705C154.901 124.473 155.247 123.384 155.938 122.438C156.639 121.491 157.591 120.747 158.793 120.207C160.005 119.668 161.379 119.398 162.913 119.398C165.072 119.398 166.767 119.871 167.998 120.818C169.238 121.765 170.119 123.015 170.64 124.568ZM185.232 141.955C183.129 141.955 181.316 141.491 179.791 140.562C178.276 139.625 177.107 138.318 176.283 136.642C175.468 134.956 175.061 132.996 175.061 130.761C175.061 128.527 175.468 126.557 176.283 124.852C177.107 123.138 178.252 121.803 179.72 120.847C181.197 119.881 182.921 119.398 184.891 119.398C186.027 119.398 187.149 119.587 188.257 119.966C189.365 120.345 190.374 120.96 191.283 121.812C192.192 122.655 192.916 123.773 193.456 125.165C193.996 126.557 194.266 128.271 194.266 130.307V131.727H177.447V128.83H190.857C190.857 127.598 190.61 126.5 190.118 125.534C189.635 124.568 188.944 123.806 188.044 123.247C187.154 122.688 186.103 122.409 184.891 122.409C183.555 122.409 182.4 122.741 181.425 123.403C180.459 124.057 179.715 124.909 179.195 125.96C178.674 127.011 178.413 128.138 178.413 129.341V131.273C178.413 132.92 178.697 134.317 179.266 135.463C179.843 136.599 180.643 137.466 181.666 138.062C182.689 138.65 183.877 138.943 185.232 138.943C186.112 138.943 186.908 138.82 187.618 138.574C188.338 138.318 188.958 137.939 189.479 137.438C190 136.926 190.402 136.292 190.686 135.534L193.925 136.443C193.584 137.542 193.011 138.508 192.206 139.341C191.401 140.165 190.407 140.809 189.223 141.273C188.039 141.727 186.709 141.955 185.232 141.955Z" fill="white"/>
<path d="M14 112H129.5" stroke="white" stroke-width="1.5"/>
<path d="M152 112.099L206.505 112.099" stroke="white" stroke-width="1.5"/>
</svg>
