<svg width="193" height="82" viewBox="0 0 193 82" fill="none" xmlns="http://www.w3.org/2000/svg">
<path d="M114.5 43.2302L119 51.7302L127 0.230248V73.7302L139.5 43.2302" stroke="#003469" stroke-width="3"/>
<path d="M9.26136 30.2643L7.75568 30.6905C7.66099 30.4395 7.52131 30.1957 7.33665 29.9589C7.15672 29.7175 6.91051 29.5186 6.59801 29.3624C6.28551 29.2061 5.88542 29.128 5.39773 29.128C4.73011 29.128 4.17377 29.2819 3.72869 29.5896C3.28835 29.8927 3.06818 30.2785 3.06818 30.7473C3.06818 31.164 3.2197 31.493 3.52273 31.7345C3.82576 31.976 4.29924 32.1772 4.94318 32.3382L6.5625 32.7359C7.53788 32.9727 8.26468 33.3349 8.7429 33.8226C9.22112 34.3055 9.46023 34.9282 9.46023 35.6905C9.46023 36.3155 9.2803 36.8742 8.92045 37.3666C8.56534 37.859 8.06818 38.2473 7.42898 38.5314C6.78977 38.8155 6.0464 38.9575 5.19886 38.9575C4.08617 38.9575 3.16525 38.716 2.43608 38.2331C1.70691 37.7501 1.24527 37.0446 1.05114 36.1166L2.64205 35.7189C2.79356 36.306 3.08002 36.7463 3.50142 37.0399C3.92756 37.3335 4.4839 37.4802 5.17045 37.4802C5.9517 37.4802 6.57197 37.3145 7.03125 36.9831C7.49527 36.6469 7.72727 36.2445 7.72727 35.7757C7.72727 35.3969 7.5947 35.0797 7.32955 34.824C7.06439 34.5636 6.6572 34.3695 6.10795 34.2416L4.28977 33.8155C3.29072 33.5787 2.55682 33.2118 2.08807 32.7146C1.62405 32.2127 1.39205 31.5854 1.39205 30.8325C1.39205 30.217 1.56487 29.6725 1.91051 29.199C2.26089 28.7255 2.73674 28.3538 3.33807 28.0839C3.94413 27.8141 4.63068 27.6791 5.39773 27.6791C6.47727 27.6791 7.32481 27.9159 7.94034 28.3893C8.56061 28.8628 9.00095 29.4878 9.26136 30.2643ZM16.5572 38.9575C15.506 38.9575 14.5993 38.7255 13.837 38.2615C13.0794 37.7927 12.4947 37.1393 12.0827 36.3013C11.6755 35.4585 11.4719 34.4784 11.4719 33.3609C11.4719 32.2435 11.6755 31.2587 12.0827 30.4064C12.4947 29.5494 13.0676 28.8818 13.8015 28.4035C14.5401 27.9206 15.4019 27.6791 16.3867 27.6791C16.9549 27.6791 17.516 27.7738 18.07 27.9632C18.6239 28.1526 19.1282 28.4604 19.5827 28.8865C20.0373 29.3079 20.3995 29.8666 20.6694 30.5626C20.9393 31.2587 21.0742 32.1157 21.0742 33.1337V33.8439H12.6651V32.395H19.3697C19.3697 31.7795 19.2466 31.2302 19.0004 30.7473C18.7589 30.2643 18.4132 29.8832 17.9634 29.6038C17.5183 29.3245 16.9928 29.1848 16.3867 29.1848C15.7191 29.1848 15.1415 29.3505 14.6538 29.682C14.1708 30.0087 13.7991 30.4348 13.5387 30.9604C13.2783 31.4859 13.1481 32.0494 13.1481 32.6507V33.6166C13.1481 34.4405 13.2901 35.1389 13.5742 35.7118C13.863 36.28 14.2631 36.7132 14.7745 37.0115C15.2859 37.3051 15.8801 37.4518 16.5572 37.4518C16.9975 37.4518 17.3952 37.3903 17.7504 37.2672C18.1102 37.1393 18.4203 36.9499 18.6808 36.699C18.9412 36.4433 19.1424 36.1261 19.2844 35.7473L20.9038 36.2018C20.7333 36.7511 20.4469 37.234 20.0444 37.6507C19.6419 38.0626 19.1448 38.3846 18.5529 38.6166C17.9611 38.8439 17.2958 38.9575 16.5572 38.9575ZM23.6239 38.7302V27.8212H25.2433V29.4689H25.3569C25.5558 28.9291 25.9156 28.4911 26.4364 28.155C26.9573 27.8188 27.5444 27.6507 28.1978 27.6507C28.3209 27.6507 28.4748 27.6531 28.6594 27.6578C28.8441 27.6625 28.9838 27.6696 29.0785 27.6791V29.3837C29.0217 29.3695 28.8915 29.3481 28.6879 29.3197C28.489 29.2866 28.2783 29.27 28.0558 29.27C27.5255 29.27 27.052 29.3813 26.6353 29.6038C26.2234 29.8216 25.8967 30.1247 25.6552 30.5129C25.4184 30.8964 25.3001 31.3344 25.3001 31.8268V38.7302H23.6239ZM40.3178 27.8212L36.2837 38.7302H34.5792L30.5451 27.8212H32.3633L35.3746 36.5143H35.4883L38.4996 27.8212H40.3178ZM42.5302 38.7302V27.8212H44.2063V38.7302H42.5302ZM43.3825 26.003C43.0558 26.003 42.774 25.8917 42.5373 25.6692C42.3053 25.4466 42.1893 25.1791 42.1893 24.8666C42.1893 24.5541 42.3053 24.2866 42.5373 24.0641C42.774 23.8415 43.0558 23.7302 43.3825 23.7302C43.7092 23.7302 43.9885 23.8415 44.2205 24.0641C44.4573 24.2866 44.5756 24.5541 44.5756 24.8666C44.5756 25.1791 44.4573 25.4466 44.2205 25.6692C43.9885 25.8917 43.7092 26.003 43.3825 26.003ZM51.7081 38.9575C50.6854 38.9575 49.8047 38.716 49.0661 38.2331C48.3274 37.7501 47.7592 37.0849 47.3615 36.2374C46.9638 35.3898 46.7649 34.4215 46.7649 33.3325C46.7649 32.2246 46.9685 31.2468 47.3757 30.3993C47.7876 29.547 48.3606 28.8818 49.0945 28.4035C49.8331 27.9206 50.6948 27.6791 51.6797 27.6791C52.4467 27.6791 53.138 27.8212 53.7536 28.1052C54.3691 28.3893 54.8733 28.7871 55.2663 29.2984C55.6593 29.8098 55.9032 30.4064 55.9979 31.0882H54.3217C54.1939 30.591 53.9098 30.1507 53.4695 29.7672C53.0339 29.3789 52.4467 29.1848 51.7081 29.1848C51.0547 29.1848 50.4818 29.3552 49.9893 29.6962C49.5017 30.0323 49.1205 30.5082 48.8459 31.1237C48.576 31.7345 48.4411 32.4518 48.4411 33.2757C48.4411 34.1185 48.5736 34.8524 48.8388 35.4774C49.1087 36.1024 49.4875 36.5877 49.9751 36.9334C50.4676 37.279 51.0452 37.4518 51.7081 37.4518C52.1437 37.4518 52.5391 37.3761 52.8942 37.2246C53.2493 37.0731 53.55 36.8552 53.7962 36.5712C54.0424 36.2871 54.2176 35.9462 54.3217 35.5484H55.9979C55.9032 36.1924 55.6688 36.7724 55.2947 37.2885C54.9254 37.7999 54.4354 38.207 53.8246 38.5101C53.2185 38.8084 52.513 38.9575 51.7081 38.9575ZM63.022 38.9575C61.9709 38.9575 61.0642 38.7255 60.3018 38.2615C59.5443 37.7927 58.9595 37.1393 58.5476 36.3013C58.1404 35.4585 57.9368 34.4784 57.9368 33.3609C57.9368 32.2435 58.1404 31.2587 58.5476 30.4064C58.9595 29.5494 59.5324 28.8818 60.2663 28.4035C61.005 27.9206 61.8667 27.6791 62.8516 27.6791C63.4197 27.6791 63.9808 27.7738 64.5348 27.9632C65.0888 28.1526 65.593 28.4604 66.0476 28.8865C66.5021 29.3079 66.8643 29.8666 67.1342 30.5626C67.4041 31.2587 67.5391 32.1157 67.5391 33.1337V33.8439H59.13V32.395H65.8345C65.8345 31.7795 65.7114 31.2302 65.4652 30.7473C65.2237 30.2643 64.8781 29.8832 64.4283 29.6038C63.9832 29.3245 63.4576 29.1848 62.8516 29.1848C62.1839 29.1848 61.6063 29.3505 61.1186 29.682C60.6357 30.0087 60.264 30.4348 60.0036 30.9604C59.7431 31.4859 59.6129 32.0494 59.6129 32.6507V33.6166C59.6129 34.4405 59.755 35.1389 60.0391 35.7118C60.3279 36.28 60.728 36.7132 61.2393 37.0115C61.7507 37.3051 62.3449 37.4518 63.022 37.4518C63.4624 37.4518 63.8601 37.3903 64.2152 37.2672C64.575 37.1393 64.8852 36.9499 65.1456 36.699C65.406 36.4433 65.6072 36.1261 65.7493 35.7473L67.3686 36.2018C67.1982 36.7511 66.9117 37.234 66.5092 37.6507C66.1068 38.0626 65.6096 38.3846 65.0178 38.6166C64.4259 38.8439 63.7607 38.9575 63.022 38.9575Z" fill="#003469"/>
<path d="M71.0682 80.9121V50.9121H74.3068V54.378H74.7045C74.9508 53.9992 75.2917 53.5162 75.7273 52.9291C76.1723 52.3325 76.8068 51.8022 77.6307 51.3382C78.464 50.8647 79.5909 50.628 81.0114 50.628C82.8485 50.628 84.4678 51.0873 85.8693 52.0058C87.2708 52.9244 88.3646 54.2265 89.1506 55.9121C89.9366 57.5977 90.3295 59.5863 90.3295 61.878C90.3295 64.1886 89.9366 66.1914 89.1506 67.8865C88.3646 69.5721 87.2756 70.8789 85.8835 71.807C84.4915 72.7255 82.8864 73.1848 81.0682 73.1848C79.6667 73.1848 78.5445 72.9528 77.7017 72.4888C76.8589 72.0153 76.2102 71.4802 75.7557 70.8837C75.3011 70.2776 74.9508 69.7757 74.7045 69.378H74.4205V80.9121H71.0682ZM74.3636 61.8212C74.3636 63.4689 74.6051 64.9225 75.0881 66.182C75.571 67.432 76.2765 68.4121 77.2045 69.1223C78.1326 69.8231 79.2689 70.1734 80.6136 70.1734C82.0152 70.1734 83.1847 69.8041 84.1222 69.0655C85.0691 68.3174 85.7794 67.3136 86.2528 66.0541C86.7358 64.7852 86.9773 63.3742 86.9773 61.8212C86.9773 60.2871 86.7405 58.9045 86.267 57.6734C85.803 56.4329 85.0975 55.4528 84.1506 54.7331C83.2131 54.0039 82.0341 53.6393 80.6136 53.6393C79.25 53.6393 78.1042 53.985 77.1761 54.6763C76.2481 55.3581 75.5473 56.3145 75.0739 57.5456C74.6004 58.7672 74.3636 60.1924 74.3636 61.8212ZM109.193 63.8098V50.9121H112.545V72.7302H109.193V69.0371H108.966C108.455 70.145 107.659 71.0873 106.58 71.8638C105.5 72.6308 104.136 73.0143 102.489 73.0143C101.125 73.0143 99.9129 72.716 98.8523 72.1195C97.7917 71.5134 96.9583 70.6043 96.3523 69.3922C95.7462 68.1706 95.4432 66.6318 95.4432 64.7757V50.9121H98.7955V64.5484C98.7955 66.1393 99.2405 67.4083 100.131 68.3552C101.03 69.3022 102.176 69.7757 103.568 69.7757C104.402 69.7757 105.249 69.5626 106.111 69.1365C106.982 68.7104 107.711 68.057 108.298 67.1763C108.895 66.2956 109.193 65.1734 109.193 63.8098ZM156.64 55.7984L153.629 56.6507C153.439 56.1488 153.16 55.6611 152.79 55.1876C152.431 54.7047 151.938 54.307 151.313 53.9945C150.688 53.682 149.888 53.5257 148.913 53.5257C147.577 53.5257 146.465 53.8335 145.575 54.449C144.694 55.0551 144.254 55.8268 144.254 56.7643C144.254 57.5977 144.557 58.2558 145.163 58.7388C145.769 59.2217 146.716 59.6242 148.004 59.9462L151.242 60.7416C153.193 61.2151 154.647 61.9395 155.603 62.9149C156.559 63.8808 157.038 65.1261 157.038 66.6507C157.038 67.9007 156.678 69.0181 155.958 70.003C155.248 70.9878 154.254 71.7643 152.975 72.3325C151.697 72.9007 150.21 73.1848 148.515 73.1848C146.29 73.1848 144.448 72.7018 142.989 71.7359C141.531 70.77 140.608 69.359 140.219 67.503L143.401 66.7075C143.704 67.8818 144.277 68.7624 145.12 69.3496C145.972 69.9367 147.085 70.2302 148.458 70.2302C150.021 70.2302 151.261 69.8988 152.18 69.2359C153.108 68.5636 153.572 67.7587 153.572 66.8212C153.572 66.0636 153.307 65.4291 152.776 64.9177C152.246 64.3969 151.432 64.0087 150.333 63.753L146.697 62.9007C144.699 62.4272 143.231 61.6933 142.293 60.699C141.365 59.6952 140.901 58.4405 140.901 56.9348C140.901 55.7037 141.247 54.6147 141.938 53.6677C142.639 52.7208 143.591 51.9774 144.793 51.4376C146.005 50.8979 147.379 50.628 148.913 50.628C151.072 50.628 152.767 51.1015 153.998 52.0484C155.238 52.9954 156.119 54.2454 156.64 55.7984ZM171.232 73.1848C169.129 73.1848 167.316 72.7208 165.791 71.7927C164.276 70.8552 163.107 69.5484 162.283 67.8723C161.468 66.1867 161.061 64.2265 161.061 61.9916C161.061 59.7568 161.468 57.7871 162.283 56.0825C163.107 54.3685 164.252 53.0333 165.72 52.0768C167.197 51.1109 168.921 50.628 170.891 50.628C172.027 50.628 173.149 50.8174 174.257 51.1962C175.365 51.5749 176.374 52.1905 177.283 53.0427C178.192 53.8856 178.916 55.003 179.456 56.395C179.996 57.7871 180.266 59.5011 180.266 61.5371V62.9575H163.447V60.0598H176.857C176.857 58.8287 176.61 57.7302 176.118 56.7643C175.635 55.7984 174.944 55.0361 174.044 54.4774C173.154 53.9187 172.103 53.6393 170.891 53.6393C169.555 53.6393 168.4 53.9708 167.425 54.6337C166.459 55.2871 165.715 56.1393 165.195 57.1905C164.674 58.2416 164.413 59.3685 164.413 60.5712V62.503C164.413 64.1507 164.697 65.5475 165.266 66.6933C165.843 67.8297 166.643 68.6962 167.666 69.2927C168.689 69.8799 169.877 70.1734 171.232 70.1734C172.112 70.1734 172.908 70.0503 173.618 69.8041C174.338 69.5484 174.958 69.1696 175.479 68.6677C176 68.1564 176.402 67.5219 176.686 66.7643L179.925 67.6734C179.584 68.7719 179.011 69.7378 178.206 70.5712C177.401 71.395 176.407 72.039 175.223 72.503C174.039 72.9575 172.709 73.1848 171.232 73.1848Z" fill="#003469"/>
<path d="M0 43.2302H115.5" stroke="#003469" stroke-width="1.5"/>
<path d="M138 43.3291L192.505 43.3291" stroke="#003469" stroke-width="1.5"/>
</svg>
